<?xml version="1.0" standalone="no"?><!DOCTYPE svg PUBLIC "-//W3C//DTD SVG 1.1//EN" "http://www.w3.org/Graphics/SVG/1.1/DTD/svg11.dtd"><svg class="icon" width="200px" height="200.00px" viewBox="0 0 1024 1024" version="1.1" xmlns="http://www.w3.org/2000/svg"><path d="M789.76 95.3344H706.56V39.7824a27.8016 27.8016 0 1 0-55.552 0v55.552H373.0944V39.7824a27.8016 27.8016 0 1 0-55.6544 0v55.552H234.24A111.2576 111.2576 0 0 0 122.88 206.4384V901.12a111.3088 111.3088 0 0 0 111.1552 111.104h555.52A111.3088 111.3088 0 0 0 901.12 901.12V206.4384a111.2576 111.2576 0 0 0-111.36-111.104zM845.3632 901.12a55.6544 55.6544 0 0 1-55.6032 55.552H234.24A55.6544 55.6544 0 0 1 178.6368 901.12V206.4384a55.6544 55.6544 0 0 1 55.6032-55.552H317.44v55.552a27.8016 27.8016 0 1 0 55.552 0V150.8864h277.8112v55.552a27.8016 27.8016 0 1 0 55.552 0V150.8864h83.3024a55.6544 55.6544 0 0 1 55.6032 55.552z" fill="#ff6767" /><path d="M734.208 567.552H289.792a27.8016 27.8016 0 1 0 0 55.552h444.416a27.8016 27.8016 0 0 0 0-55.552z m0-166.656H289.792a27.8016 27.8016 0 0 0 0 55.552h444.416a27.8016 27.8016 0 1 0 0-55.552z m0 333.312H289.792a27.8016 27.8016 0 1 0 0 55.552h444.416a27.8016 27.8016 0 1 0 0-55.552z" fill="#ff6767" /></svg>