<?xml version="1.0" standalone="no"?><!DOCTYPE svg PUBLIC "-//W3C//DTD SVG 1.1//EN" "http://www.w3.org/Graphics/SVG/1.1/DTD/svg11.dtd"><svg class="icon" width="200px" height="200.00px" viewBox="0 0 1024 1024" version="1.1" xmlns="http://www.w3.org/2000/svg"><path d="M787.819355 621.006452c39.63871-56.154839 62.76129-123.870968 62.76129-196.541936 0-186.632258-151.948387-338.580645-338.580645-338.580645s-338.580645 151.948387-338.580645 338.580645c0 77.625806 26.425806 148.645161 69.367742 206.451613-49.548387 61.109677-77.625806 138.735484-77.625807 219.664516 0 47.896774 39.63871 87.535484 89.187097 87.535484h515.303226c46.245161 0 85.883871-36.335484 89.187097-80.929032 4.954839-77.625806-18.167742-153.6-71.019355-236.180645zM239.483871 424.464516c0-150.296774 122.219355-272.516129 272.516129-272.516129s272.516129 122.219355 272.516129 272.516129c0 56.154839-16.516129 109.006452-46.245161 151.948387-13.212903 18.167742-26.425806 34.683871-42.941936 49.548387-47.896774 42.941935-112.309677 71.019355-183.329032 71.019355-67.716129 0-128.825806-24.774194-176.722581-66.064516-16.516129-14.864516-31.380645-31.380645-44.593548-49.548387-33.032258-42.941935-51.2-97.445161-51.2-156.903226zM792.774194 852.232258c-1.651613 9.909677-11.56129 19.819355-23.122581 19.819355H254.348387c-13.212903 0-23.122581-9.909677-23.122581-23.122581 0-62.76129 21.470968-122.219355 57.806452-170.116129 59.458065 52.851613 137.083871 84.232258 222.967742 84.232258 89.187097 0 168.464516-34.683871 229.574194-90.838709 37.987097 64.412903 54.503226 122.219355 51.2 180.025806z" fill="#ff6767" /><path d="M715.148387 388.129032c1.651613 11.56129 3.303226 23.122581 3.303226 36.335484 0 9.909677 6.606452 16.516129 16.516129 16.516129s16.516129-6.606452 16.516129-16.516129c0-13.212903-1.651613-28.077419-3.303226-41.290322-1.651613-8.258065-9.909677-14.864516-19.819355-13.212904-8.258065 1.651613-14.864516 9.909677-13.212903 18.167742zM512 218.012903c82.580645 0 156.903226 47.896774 189.935484 123.870968 3.303226 6.606452 8.258065 9.909677 14.864516 9.909677 1.651613 0 4.954839 0 6.606452-1.651613 8.258065-3.303226 11.56129-13.212903 8.258064-21.470967-37.987097-87.535484-123.870968-143.690323-219.664516-143.690323-9.909677 0-16.516129 6.606452-16.516129 16.516129s6.606452 16.516129 16.516129 16.516129zM512 629.264516c44.593548 0 84.232258-24.774194 104.051613-66.064516 8.258065-16.516129 1.651613-36.335484-14.864516-44.593548s-36.335484-1.651613-44.593549 14.864516c-8.258065 18.167742-24.774194 28.077419-44.593548 28.077419s-36.335484-11.56129-44.593548-28.077419-28.077419-23.122581-44.593549-14.864516c-16.516129 8.258065-23.122581 28.077419-14.864516 44.593548 19.819355 41.290323 59.458065 66.064516 104.051613 66.064516z" fill="#ff6767" /></svg>